<?xml version="1.0" encoding="UTF-8"?>
<svg id="Calque_2" xmlns="http://www.w3.org/2000/svg" viewBox="0 0 482.4 367.03">
    <defs>
        <style>.cls-1{fill:currentColor;}</style>
    </defs>
    <path class="cls-1"
        d="M31.71,175.71l-2.54-63.95c-.2-5,3.68-9.21,8.68-9.42l24.22-1.02c5.75-.24,10.27,4.87,9.33,10.55l-10.27,61.95c-.97,5.88,3.89,11.09,9.83,10.51l13.81-1.34c4.61-.45,8.14-4.29,8.19-8.92l.73-61.11c.06-4.92,4.03-8.89,8.95-8.96l15.17-.21c5.4-.07,9.67,4.56,9.15,9.94l-5.09,52.92c-.51,5.33,3.68,9.94,9.03,9.94h0c4.48,0,8.28,3.27,8.97,7.69l.59,3.84c.61,3.98-1.47,7.88-5.11,9.59l-11.55,5.42c-3.18,1.49-5.22,4.69-5.22,8.21v42.67c0,5.01-4.06,9.07-9.07,9.07h-13.27c-5.65,0-9.93-5.12-8.93-10.68l6.26-34.74c1.06-5.86-3.73-11.14-9.67-10.65l-21.32,1.76c-3.96.33-7.24,3.19-8.11,7.06l-10.8,48.23c-1.01,4.5-5.24,7.53-9.82,7.04l-10.99-1.18c-5.8-.63-9.52-6.49-7.59-12l13.21-37.92c2.15-6.16-2.71-12.5-9.21-12.03l-9.45.68c-5.18.37-9.61-3.68-9.72-8.87L0,194.58c-.1-5.03,3.91-9.17,8.94-9.25l13.84-.2c5.1-.07,9.13-4.33,8.93-9.43Z" />
    <path class="cls-1"
        d="M186.83,190.82l-22.55-11.71c-.23-.12-.48-.22-.73-.29l-20.41-5.53c-1.04-.28-1.91-1.01-2.37-1.99l-9-19.22c-.37-.78-.45-1.67-.22-2.5l5-23.86c.43-1.62,1.91-2.75,3.59-2.73l50.07.41c2.02.02,3.65,1.66,3.65,3.68v12.95c0,2.09-1.74,3.76-3.83,3.68l-4.55-.18c-1.88-.08-3.41-1.56-3.52-3.45h0c-.14-2.21-2.19-3.8-4.36-3.38l-21.78,4.16c-2.7.52-3.9,3.71-2.21,5.88l10.32,13.22c.6.77,1.49,1.27,2.46,1.39l30.78,3.74c1.41.17,2.59,1.13,3.04,2.48l11.93,35.37c.53,1.56-.05,3.28-1.41,4.21l-32.31,22.11c-.6.41-1.31.63-2.04.64l-40.61.42c-2.01.02-3.66-1.57-3.71-3.58l-.29-11.11c-.05-1.76,1.16-3.31,2.89-3.69l20.15-4.44c2.3-.51,4.47,1.24,4.47,3.59v.53c0,2.39,2.25,4.15,4.57,3.57l23.17-11.73c1.17-.59,2.22-1.42,3.01-2.47.13-.17.24-.38.33-.61.48-1.14.41-2.43-.07-3.57l-1.59-3.74c-.28-.97-.94-1.79-1.84-2.25Z" />
    <path class="cls-1"
        d="M218.65,131h0c-3.65.39-6.31,3.63-5.99,7.28l4.93,56.9c.32,3.68,3.55,6.42,7.23,6.13l22.94-1.78c5.35-.42,8.09-6.62,4.8-10.85l-.04-.05c-1.31-1.69-3.35-2.65-5.49-2.6l-8.31.22c-3.44.09-6.4-2.43-6.85-5.84l-5.81-43.59c-.48-3.62-3.76-6.2-7.39-5.81Z" />
    <path class="cls-1"
        d="M248.5,118.61l-.4,55.33c-.02,2.3.83,4.52,2.38,6.23l23.39,25.69c1.73,1.9,4.19,2.99,6.77,2.99h18.41c2.67,0,5.2-1.16,6.94-3.18l14.81-17.22c1.63-1.9,2.41-4.38,2.17-6.87l-5.66-57.05c-.02-.2-.05-.4-.08-.6l-2.83-17c-1.27-7.63-10.86-10.34-15.93-4.5h0c-1.71,1.97-2.5,4.58-2.17,7.16l7.69,59.87c.42,3.25-.94,6.47-3.55,8.45l-5.45,4.14c-2.43,1.84-5.61,2.35-8.5,1.37l-8.56-2.93c-2.06-.71-3.8-2.13-4.91-4l-3.19-5.39c-.77-1.3-1.2-2.78-1.27-4.29l-1.31-32.76-.26-15.58c-.1-6.18-6.18-10.48-12.04-8.53l-.19.06c-3.71,1.24-6.23,4.7-6.26,8.61Z" />
    <path class="cls-1"
        d="M189.53,289.84l-.22-9.4c-.08-3.32-2.53-6.1-5.82-6.58l-1.27-.19c-3.28-.49-5.73-3.26-5.82-6.57l-.15-6.18c-.09-3.75,2.86-6.87,6.61-6.98l3.23-.1c3.38-.1,6.17-2.66,6.57-6.01l2.38-20.09c.39-3.27,3.06-5.8,6.35-6l68.19-7.29c4.29-.26,7.75,3.46,7.17,7.72h0c-.44,3.24-3.12,5.72-6.39,5.89l-56.24,6.11c-3.54.19-6.34,3.05-6.45,6.59l-.08,2.47c-.11,3.53,2.49,6.56,5.99,6.98l2.7.33c3.65.44,6.29,3.7,5.97,7.36l-.78,8.92c-.3,3.44-3.12,6.11-6.56,6.22l-.51.02c-4.01.13-7.04,3.69-6.54,7.67l1.34,10.54c.65,5.16-4.47,9.12-9.3,7.19l-6.11-2.44c-2.53-1.01-4.22-3.44-4.28-6.17Z" />
    <path class="cls-1"
        d="M235.97,292.69l-2.14-47.04c-.06-1.23.87-2.29,2.1-2.4l59.87-5.21c1.32-.12,2.47.91,2.5,2.24l.35,15.24c.03,1.31-1.04,2.39-2.36,2.36l-32.58,2.2c-1.48-.04-2.6,2.31-2.31,3.75h0c.22,1.08,1.16,1.85,2.26,1.85h9.01c1.23,0,2.24.97,2.3,2.19l.25,5.21c.06,1.31-.99,2.41-2.3,2.41h-8.94c-1.41,0-2.49.25-2.28,1.64l.71,4.71c.17,1.14,1.17,1.98,2.32,1.96l134.89-5.72c1.31-.03,2.38,1.05,2.35,2.36l-.34,13.1c-.03,1.25-1.06,2.25-2.31,2.24l-161.06-.91c-1.23,0-2.23-.97-2.29-2.2Z" />
    <path class="cls-1"
        d="M390.25,212.27l-67.04,3.03c-1.92.09-3.44,2.67-3.44,4.6v14.24c0,.41.07.81.21,1.2l1.69,4.79c.54,1.52,2.02,2.5,3.63,2.39l24.06-1.6c.82-.05,1.63.17,2.3.64l6.78,4.74c.96.67,1.54,1.77,1.54,2.95v1.01c0,1.82-1.36,3.36-3.17,3.57l-16.25,1.93c-.14.02-.28.03-.43.03h-15.17c-.93,0-1.82-.36-2.49-1l-7.41-7.1c-1.5-1.44-3.9-1.31-5.24.27l-1.48,1.75c-.75.88-1.03,2.07-.74,3.2l2.65,10.61c.38,1.52,1.71,2.63,3.28,2.72l20.63,1.24c.07,0,.14,0,.22,0h21.74c.08,0,.17,0,.25,0l17.98-1.25c1.24-.09,2.35-.81,2.93-1.91l6.21-11.74c.75-1.42.47-3.16-.68-4.27l-11.78-11.4c-.5-.49-1.14-.82-1.83-.95l-17.55-3.36c-1.89-.36-3.16-2.14-2.89-4.04h0c.26-1.8,1.81-4.12,3.63-4.09l41.23.75c2.93.05,4.69-3.24,3.02-5.65l-3.28-5.74c-.71-1.02-1.88-1.6-3.12-1.55Z" />
    <path class="cls-1"
        d="M336.96,182.46h0c.47,4.65,4.12,8.34,8.76,8.86l55.44,4.72c4.88.54,8.63,4.58,8.81,9.5l3.1,88.02c.19,5.33,4.56,9.56,9.9,9.56h1.31c5.57,0,10.05-4.59,9.9-10.16l-2.3-88.22c-.13-5.16,3.72-9.57,8.86-10.11l26.93-2.85c6.4-.68,10.47-7.19,8.27-13.24l-.74-2.04c-1.44-3.97-5.24-6.58-9.46-6.52l-119.07,1.6c-5.8.09-10.28,5.12-9.71,10.89Z" />
    <path class="cls-1"
        d="M223.02,24.57l-12.17,11.26c-.89.83-1.66,1.78-2.29,2.82l-16.94,28.23c-1.2,1.99-1.83,4.28-1.83,6.6v16.88c0,2.59.78,5.11,2.24,7.25l9.53,13.93c2.75,4.03,7.56,6.14,12.39,5.46l12.96-1.83c2.32-.33,4.51-1.29,6.33-2.77l16.61-13.58c2.98-2.44,4.71-6.08,4.71-9.93v-38.5c0-2.36-.65-4.67-1.87-6.68l-9.99-16.39c-4.22-6.92-13.72-8.25-19.67-2.74ZM224.63,99.52l-4.05.25c-4.87.3-9.48-2.19-11.91-6.41l-2.23-3.88c-1.46-2.54-2-5.49-1.55-8.38l2.74-17.49c.41-2.62,1.62-5.04,3.46-6.94l3.32-3.42c6.33-6.54,17.27-4.58,20.95,3.74h0c.49,1.11.82,2.29.98,3.49l2.47,18.48c.28,2.08.04,4.19-.68,6.15l-2.24,6.06c-1.76,4.77-6.17,8.04-11.25,8.35Z" />
    <path class="cls-1"
        d="M270.76,87.68l-6.09-58.43c-.07-.66-.27-1.3-.6-1.88l-6.73-11.83c-1.56-2.74-.09-6.22,2.96-7.01l14.4-3.74c2.13-.55,4.37.42,5.42,2.35l13.16,24.17c.25.46.47.95.64,1.45h0c1.79,5.14,9.4,3.8,9.33-1.64l-.2-14.12V5.29c0-2.56,2.01-4.67,4.57-4.79L317.94,0c2.65-.13,4.91,1.93,5.02,4.58l3.63,84.42c.12,2.82-2.2,5.13-5.02,5l-18.03-.86c-1.83-.09-3.46-1.21-4.18-2.9l-6.51-15.18c-2.05-4.79-9.21-3.33-9.21,1.89v25.95c0,2.99-2.7,5.25-5.65,4.72l-5.36-.97c-2.57-.46-4.3-2.9-3.89-5.48l1.97-12.24c.07-.42.08-.84.03-1.26Z" />
    <path class="cls-1"
        d="M347.68,33.02l-8.39,1.29c-3.22.49-5.51,3.39-5.25,6.63l7.2,91.72c.26,3.37,3.18,5.91,6.55,5.72l56.65-3.22c4.3-.24,7.05-4.68,5.37-8.64l-4.49-10.57c-1.19-2.81-4.25-4.34-7.21-3.6l-40.01,9.9c-3.83.95-7.57-1.87-7.71-5.81l-.59-16.49c-.12-3.43,2.56-6.31,5.99-6.44l2.41-.09c3.56-.13,6.29-3.21,5.97-6.76h0c-.29-3.21-2.97-5.67-6.19-5.67h-3.38c-3.39,0-6.16-2.72-6.22-6.11l-.33-18.95c-.06-3.39,2.61-6.21,6-6.32l25.37-.87c4.09-.14,6.93-4.12,5.73-8.03l-2.76-9.06c-.94-3.07-4.05-4.92-7.2-4.28l-27.52,5.64Z" />
</svg>