<svg xmlns="http://www.w3.org/2000/svg" width="285" height="349">
    <path fill="#01a0c9"
        d="M214.073 156.218h-.33c-.344 0-.509.096-.66.495-.138.302-1.486 3.701-1.679 4.155-.055.124-.646 1.637-.701 1.775h-.042c-.068-.138-.646-1.679-.715-1.816l-1.665-4.114c-.151-.4-.302-.495-.66-.495h-.317c-.481 0-.591.233-.591.605v7.636c0 .165.068.206.22.206h.605c.165 0 .234-.04.234-.206v-6.15h.069l.619 1.54c.165.372 1.238 2.973 1.403 3.344.138.372.262.482.62.482h.399c.371 0 .481-.11.619-.482.165-.357 1.224-2.985 1.39-3.357a61 61 0 0 1 .646-1.65h.069v6.273c0 .165.068.206.22.206h.605c.165 0 .234-.04.234-.206v-7.636c0-.372-.11-.605-.592-.605m-8.599.014h-5.902c-.152 0-.166.068-.166.192v.592c0 .151.014.193.166.193h2.339v7.25c0 .166.082.207.233.207h.688c.152 0 .22-.041.22-.207v-7.25h2.422c.138 0 .165-.042.165-.193v-.592c0-.124-.028-.192-.165-.192M143.01 278.217a38.7 38.7 0 0 0 6.59 21.629l.689 1.032 11.832-8.544-.413-.62a24.1 24.1 0 0 1-4.114-13.497c0-13.387 10.884-24.284 24.271-24.284a24.15 24.15 0 0 1 13.401 4.045l.55.357 5.765-13.566a38.6 38.6 0 0 0-19.716-5.407c-21.422 0-38.855 17.432-38.855 38.855m137.918-27.394-13.593 6.618a25.1 25.1 0 0 1 2.518 10.416c.33 13.896-10.705 25.467-24.587 25.797-13.897.33-25.468-10.704-25.798-24.587-.33-13.896 10.704-25.467 24.587-25.797a25.27 25.27 0 0 1 17.556 6.549l10.484-10.897c-7.677-7.127-17.872-11.035-28.398-10.787-22.234.536-39.887 19.056-39.35 41.29.523 22.234 19.042 39.887 41.276 39.364 22.235-.537 39.887-19.056 39.364-41.29a40.2 40.2 0 0 0-4.059-16.676M129.1 243.104l-12.452 8.847.77 1.239a23.07 23.07 0 0 1 3.894 12.85c0 12.727-10.346 23.088-23.087 23.088-12.727 0-23.087-10.36-23.087-23.088 0-4.581 1.334-9.012 3.852-12.782l.66-.908-12.575-8.86-.88 1.28a38.27 38.27 0 0 0-6.426 21.27c0 21.203 17.254 38.443 38.456 38.443s38.456-17.24 38.456-38.443c0-7.663-2.243-15.052-6.508-21.395zm-91.331 50.193c-9.893 0-18.478-5.6-22.757-13.814L1.266 286.65c6.865 13.154 20.638 22.152 36.502 22.152 9.397 0 18.052-3.165 24.986-8.462l-9.411-12.314a25.55 25.55 0 0 1-15.575 5.27m0-51.348a25.54 25.54 0 0 1 14.502 4.499l8.75-12.796c-6.604-4.54-14.625-7.196-23.252-7.196-16.91 0-31.425 10.196-37.768 24.78l14.213 6.178c3.949-9.095 13.016-15.465 23.555-15.465m-20.294 16.896c-.413.949-.77 1.926-1.046 2.944a22.8 22.8 0 0 0-.757 5.889c0 1.747.207 3.48.592 5.187a22.3 22.3 0 0 0 1.885 4.994l12.231-6.37c-.605-1.156-.976-2.463-.976-3.866 0-1.156.261-2.257.688-3.261zM128.659 86.488l-1.404-3.591c5.256-15.08 12.878-25.165 16.236-29.141a21.63 21.63 0 0 1-6.11-15.094c0-7.773 4.073-14.57 10.21-18.423a17.8 17.8 0 0 0-2.12 8.434c0 9.934 8.05 17.983 17.97 17.983 9.934 0 17.983-8.049 17.983-17.983 0-9.74-7.774-17.652-17.46-17.941L167.307 0l-.247.069c-34.136 10.209-58.737 42.28-58.737 79.1 0 22.811 8.05 43.532 17.97 54.966.825-1.734 1.65-3.646 2.146-5.009-1.982-7.65-2.546-15.932-1.142-24.201 4.347-26.458 24.78-45.913 50.948-51.045l-5.764-6.137c-20.377 6.577-36.53 20.294-43.822 38.745m11.447-4.307c-2.201 2.6-4.417 6.866-5.2 9.315l-.03.014a59 59 0 0 1 1.872 14.818c0 11.269-5.38 25.207-12.892 35.787a85 85 0 0 1 24.71-1.307c3.248-6.838 5.312-14.103 5.312-21.147 0-5.903-.922-11.599-2.642-16.951l1.21-1.115c4.06 7.87 6.344 16.814 6.344 26.28 0 4.884-.62 9.617-1.761 14.144 7.43 1.444 14.323 3.797 21.106 7.127.949-28.385-15.479-53.852-38.03-66.964m22.29 123.457c-6.26 0-11.365 4.98-11.365 11.104 0 6.136 5.105 11.13 11.365 11.13 3.688 0 7.127-1.94 9.191-5.214l.179-.275-3.15-2.009-.18.33c-1.17 2.201-3.536 3.632-6.04 3.632-4.169 0-7.567-3.412-7.567-7.595 0-4.168 3.398-7.567 7.567-7.567 3.316 0 6.11 2.353 6.92 5.779h-7.14c-.977 0-1.706.743-1.706 1.733 0 .964.743 1.72 1.706 1.72h11.145v-1.665c0-6.122-4.912-11.103-10.925-11.103m44.304-5.971c0-.95-.798-1.706-1.803-1.706-.688 0-1.28.426-1.596 1.156l-3.618 8.902h3.77l3.095-7.582a2.5 2.5 0 0 0 .152-.77m8.654 15.369h-2.463c-2.133 0-3.398-1.115-3.398-2.972 0-1.803 1.843-3.014 4.595-3.014 2.435 0 3.866.77 4.485 1.225.29.22.66.344 1.005.344.95 0 1.72-.757 1.72-1.665 0-.578-.262-1.087-.702-1.403-1.403-1.005-2.958-1.913-6.508-1.913-4.83 0-8.352 2.71-8.352 6.426 0 3.88 2.807 6.384 7.155 6.384h2.463c1.527 0 3.33.481 3.33 2.834 0 1.871-1.858 3.192-4.513 3.192-2.463 0-4.513-.701-6.26-2.119l-.235-.192-2.435 2.586.275.22c2.312 1.872 5.38 2.904 8.655 2.904 4.953 0 8.269-2.642 8.269-6.59 0-3.743-2.848-6.247-7.086-6.247m-28.316-9.398c-6.054 0-10.622 4.623-10.622 10.76v11.048h3.674v-11.048c0-4.32 2.89-7.224 7.21-7.224 3.948 0 7.044 3.151 7.044 7.182v6.22c0 .99.84 1.83 1.83 1.83 1.005 0 1.844-.84 1.844-1.83v-6.22c0-6.315-4.513-10.718-10.98-10.718m-98.485.427-6.357 15.781-4.87-10.746a1.82 1.82 0 0 0-1.597-1.004c-.674 0-1.265.344-1.54.894l-4.83 10.856-6.48-15.781h-4.114l9.026 20.872c.22.536.88.95 1.554.95.592 0 1.321-.303 1.555-.936l4.788-11.09 4.885 11.09c.22.495.921.935 1.513.935.702 0 1.28-.357 1.541-.935l9.04-20.886zm25.233 5.42-3.343 1.624.151.303c.482.963.743 2.119.743 3.33 0 4.251-3.302 7.594-7.512 7.594-4.238 0-7.567-3.343-7.567-7.595 0-4.265 3.33-7.608 7.567-7.608 2.146 0 3.729.88 4.678 1.61.426.316.88.495 1.32.495 1.046 0 1.748-.922 1.748-1.789 0-.509-.247-1.045-.674-1.417-1.348-1.128-4.018-2.435-7.072-2.435-6.26 0-11.351 4.994-11.351 11.144 0 6.137 5.09 11.131 11.35 11.131 6.234 0 11.31-4.994 11.31-11.13 0-1.707-.398-3.371-1.196-4.954zm25.798-5.847a8.24 8.24 0 0 0-6.48 3.206c-1.583-2.022-3.99-3.206-6.522-3.206-4.595 0-8.352 3.756-8.352 8.352v13.456h3.674v-13.456c0-2.656 2.105-4.816 4.678-4.816 2.545 0 4.692 2.215 4.692 4.816l-.041 8.75c0 1.005.798 1.79 1.83 1.79 1.031 0 1.83-.785 1.83-1.79v-8.75c0-2.656 2.105-4.816 4.691-4.816 2.532 0 4.678 2.215 4.678 4.816v11.887c0 1.005.812 1.79 1.83 1.79 1.032 0 1.844-.785 1.844-1.79v-11.887c0-4.596-3.756-8.352-8.352-8.352" />
    <path fill="#d82051"
        d="M276.25 348.18c-2.739 0-5.518-.33-7.912-2.256-.302-.247-.371-.44-.179-.757.372-.536 1.252-1.98 1.596-2.49.289-.399.578-.371 1.073-.028 1.541 1.073 3.426 1.513 5.036 1.513 2.834 0 4.444-1.293 4.444-3.37 0-1.954-1.486-2.986-3.37-2.986-1.83 0-2.808.495-4.183 1.1-.51.22-1.225.317-1.83.097l-1.101-.317c-.977-.344-1.197-.853-1.142-1.83l.826-7.87c.165-1.637.976-2.339 2.325-2.339h10.993c.537 0 .688.029.688.688v2.504c0 .537-.193.688-.688.688h-9.19l-.482 4.1c1.39-.467 2.861-.564 4.127-.564 4.444 0 7.719 2.477 7.719 6.605 0 4.966-3.853 7.512-8.75 7.512m-12.012-.33h-12.3c-1.858 0-2.862-.578-2.862-2.93 0-1.542 1.17-3.468 2.985-5.202 1.706-1.664 3.715-2.985 5.105-3.866 2.449-1.54 2.986-2.298 2.986-3.467 0-1.004-.73-2.078-3.055-2.078-1.568 0-3.206.51-4.912 1.638-.344.22-.633.261-.88-.083l-1.445-2.215c-.193-.302-.193-.592.124-.812 2.229-1.664 4.788-2.518 7.499-2.518 4.182 0 7.416 1.913 7.416 5.89 0 3.109-2.133 4.966-5.119 6.7-2.077 1.197-4.568 3.11-5.448 5.187h9.906c.482 0 .578.069.578.633v2.49c0 .482-.138.633-.578.633m-26.28-17.666c-3.15 0-4.25 2.958-4.25 7.058 0 4.018 1.1 7.072 4.306 7.072 3.178 0 4.293-3.013 4.293-7.017 0-4.086-1.17-7.113-4.348-7.113m0 18.01c-6.013 0-8.971-4.32-8.971-10.897 0-6.604 3.027-10.98 9.026-10.98 6.15 0 8.984 4.307 8.984 10.925 0 6.535-2.972 10.952-9.04 10.952m-12.148-.344h-12.314c-1.858 0-2.862-.578-2.862-2.93 0-1.542 1.17-3.468 2.985-5.202 1.707-1.664 3.73-2.985 5.105-3.866 2.449-1.54 2.986-2.298 2.986-3.467 0-1.004-.716-2.078-3.041-2.078-1.582 0-3.22.51-4.912 1.638-.344.22-.633.261-.88-.083l-1.459-2.215c-.179-.302-.179-.591.124-.812 2.243-1.664 4.788-2.517 7.499-2.517 4.182 0 7.43 1.912 7.43 5.888 0 3.11-2.147 4.967-5.133 6.7-2.077 1.198-4.568 3.11-5.448 5.188h9.92c.468 0 .564.069.564.633v2.49c0 .482-.124.633-.564.633m-34.727-17.185h-2.353v13.14h2.449c4.238 0 5.352-2.793 5.352-6.66 0-3.687-1.142-6.48-5.448-6.48m-5.146 17.185c-1.445 0-1.816-.537-1.816-1.844V328.52c0-1.266.371-1.871 1.816-1.871h5.668c7.072 0 9.673 4.802 9.673 10.498 0 5.6-2.202 10.704-9.342 10.704zm-18.01-13.153v12.52c0 .51-.124.633-.702.633h-3.178c-.482 0-.688-.151-.688-.633v-18.45c0-1.583.481-2.12 1.967-2.12h1.266c1.21 0 1.582.207 2.27 1.363l5.146 7.829 2.6 4.086h.152v-12.644c0-.482.124-.633.701-.633h3.179c.509 0 .688.179.688.633v18.492c0 1.265-.413 2.077-1.982 2.077h-1.28c-1.196 0-1.568-.206-2.256-1.335l-4.829-7.305-2.903-4.513zm-18.272 4.994h4.747l-1.142-3.852-1.129-4.32h-.179l-1.142 4.32zm5.834 3.742h-6.921l-1.183 3.84c-.124.398-.275.577-.853.577h-3.536c-.427 0-.51-.303-.427-.605l6.302-18.974c.426-1.39.963-1.596 2.201-1.623h1.816c1.362 0 1.885.151 2.367 1.623l6.274 18.974c.082.247.028.605-.4.605h-3.604c-.454 0-.743-.055-.867-.482zm-29.348-1.141V327.28c0-.482.206-.633.688-.633h3.22c.605 0 .729.11.729.633v14.68c0 1.541.811 1.927 2.022 1.927h7.678c.467 0 .578.096.578.646v2.683c0 .454-.152.633-.578.633h-8.737c-4.486 0-5.6-2.807-5.6-5.558m-10.264-11.6h-4.114v4.844h4.018c1.76 0 2.724-.99 2.724-2.45 0-1.031-.51-2.393-2.628-2.393m4.568 7.237c1.362.605 1.788 1.761 2.146 3.178l1.555 6.054c.055.248.028.702-.468.702h-3.165c-.454 0-1.032 0-1.21-.606l-1.335-5.366c-.523-1.967-1.486-2.627-3.302-2.627h-2.93v7.952c0 .55-.097.647-.702.647H107.8c-.495 0-.701-.152-.701-.647V328.49c0-1.21.371-1.843 1.816-1.843h7.416c4.361 0 6.893 2.421 6.893 6.136 0 2.064-.99 4.032-2.807 4.995zm-16.58 9.934H94.91c-4.472 0-5.6-2.82-5.6-5.572v-10.044c0-2.876 1.486-5.6 5.572-5.6h8.682c.481 0 .577.151.577.715v2.573c0 .523-.123.674-.577.674h-7.678c-1.582 0-1.967.812-1.967 1.871v2.34h8.681c.482 0 .578.137.578.715v2.366c0 .482-.096.702-.578.702h-8.681v3.44c0 1.39.688 1.816 1.967 1.816h7.98c.523 0 .606.124.606.73v2.572c0 .482-.124.702-.606.702M86.68 329.372c0 .908-.536 1.72-1.059 2.353l-9.865 11.984.069.22h10.401c.454 0 .55.11.55.66v2.628c0 .482-.123.633-.55.633h-14.79c-1.156 0-1.761-.454-1.761-1.637v-.716c0-.963.371-1.61.976-2.325l10.223-12.41-.027-.18h-9.205c-.426 0-.578-.192-.578-.646v-2.628c0-.55.097-.66.578-.66h13.222c1.307 0 1.816.385 1.816 1.72zm-18.092 1.238h-5.476v16.607c0 .51-.124.633-.73.633H59.15c-.481 0-.688-.151-.688-.633v-16.606h-5.366c-.413 0-.578-.18-.578-.606l.028-2.724c0-.523.124-.633.578-.633h15.492c.482 0 .606.11.606.633l-.028 2.724c0 .427-.179.606-.605.606m-19.056 17.24h-3.206c-.482 0-.702-.152-.702-.634v-19.936c0-.495.22-.633.702-.633h3.206c.605 0 .729.11.729.633v19.936c0 .51-.124.633-.73.633M30.05 332.633l-1.266 5.572-1.843 7.98c-.344 1.39-.826 1.665-2.037 1.665h-1.747c-1.156 0-1.734-.028-2.064-1.54L16.8 327.24c-.123-.537.055-.592.482-.592h3.687c.578 0 .853.055.977.66l1.5 8.751.922 5.407h.206l1.142-5.476 1.637-7.622c.303-1.307.702-1.72 2.01-1.72h1.747c1.21 0 1.486.482 1.76 1.596l1.693 7.966 1.087 5.146h.179l.853-5.146 1.54-8.874c.097-.605.276-.688.785-.688h3.908c.357 0 .55.082.399.605l-4.307 19.001c-.371 1.514-.908 1.596-2.064 1.596h-1.664c-1.184 0-1.72-.179-2.12-1.665l-1.747-7.98-1.183-5.572zm-22-6.329c2.311 0 5.036.523 6.783 1.403.482.234.509.358.303.964l-.785 2.27c-.206.578-.33.578-.811.454-1.885-.578-3.853-.963-5.49-.963-1.747 0-2.422.743-2.422 1.65 0 1.074.853 1.68 3.55 2.766 4.114 1.596 7.045 3.082 7.045 7.017 0 4.238-3.165 6.33-7.898 6.33-2.6 0-5.724-.524-8.021-1.913-.33-.18-.386-.385-.18-.908l1.033-2.422c.206-.481.385-.509.839-.33 1.637.633 3.935 1.417 5.999 1.417 2.545 0 3.302-1.018 3.302-2.105 0-1.224-.784-1.912-3.357-2.875-4.265-1.638-7.086-3.247-7.086-6.605 0-3.426 2.27-6.15 7.196-6.15m189.569-293.42a81.5 81.5 0 0 0-9.37-7.994q.29 1.857.289 3.797a25.2 25.2 0 0 1-.88 6.55c15.34 13.208 25.054 32.76 25.054 54.58 0 25.248-13.002 47.44-32.663 60.292.028.014.04.028.068.04.606.317 1.197.648 1.789.964.138.082.261.151.399.234.427.234.853.481 1.266.729.302.179.619.358.922.537.165.11.33.22.509.316a90 90 0 0 1 3.082 1.981 83.4 83.4 0 0 0 9.535-8.173c15.203-15.203 23.582-35.415 23.582-56.92s-8.379-41.73-23.582-56.934M60.18 89.818c0 21.505 8.38 41.716 23.583 56.92 2.999 3 6.191 5.71 9.548 8.159a87 87 0 0 1 8.022-4.788C81.672 137.258 68.67 115.065 68.67 89.818c0-33.943 23.486-62.355 55.077-69.978a90.5 90.5 0 0 1 10.65-10.264c-19.14 1.472-36.93 9.604-50.633 23.308C68.56 48.087 60.18 68.313 60.18 89.818m55.09 90.065c.248-2.064-.385-3.99-1.926-5.875l-7.223-8.902-3.591 2.917 6.645 8.159c1.156 1.43 1.472 2.215 1.376 3.37-.083.922-.647 1.858-1.541 2.587s-1.926 1.087-2.848.977c-1.156-.138-1.857-.605-3.013-2.036l-6.632-8.16-3.591 2.904 7.237 8.902c1.541 1.885 3.288 2.89 5.352 3.082.248.028.496.041.73.041 1.995.014 3.866-.688 5.668-2.146 2.009-1.638 3.11-3.55 3.357-5.82m18.23-23.46-11.598 2.354c-.537.11-.95.371-1.21.77-.262.385-.345.88-.235 1.404l2.312 11.392c.371 1.857 1.21 3.192 2.463 3.976.839.51 1.843.77 3 .77.577 0 1.21-.082 1.87-.206l7.251-1.472-.867-4.306-7.058 1.43c-1.445.303-1.912.138-2.243-1.485l-.247-1.225 8.159-1.651-.853-4.252-8.173 1.665-.62-3.054 8.93-1.816zm22.565 6.206 6.948 1.803 1.101-4.238-7.154-1.844c-3.922-1.018-6.605.44-7.554 4.128l-2.917 11.268c-.138.51-.082 1.005.165 1.417.234.4.633.688 1.156.826l2.655.688 1.885-7.278 8.036 2.077 1.1-4.196-8.049-2.078.303-1.21c.413-1.597.894-1.72 2.325-1.363m25.853 7.43-.702-.537c-1.1-.853-1.967-.495-2.614-.082l-16.51 10.69 4.32 2.436 10.525-6.797-1.816 6.109-1.596-1.197-2.765 1.981 3.44 2.56-.799 2.737 3.77 3.467 5.49-18.863c.22-.66.371-1.65-.743-2.504m-41.235 10.181c-13.539 0-25.825 6.054-33.324 15.025l2.38 2.93c6.81-8.475 18.382-14.295 30.944-14.295 12.575 0 24.147 5.82 30.957 14.296l2.367-2.93c-7.485-8.972-19.772-15.026-33.324-15.026m50.096-13.896c-13.732-11.846-31.522-18.382-50.096-18.382-18.56 0-36.351 6.536-50.082 18.382a72 72 0 0 0-3.811 3.55l2.462 3.027a70 70 0 0 1 3.88-3.633c13.03-11.254 29.926-17.446 47.55-17.446 17.64 0 34.535 6.192 47.565 17.446a70 70 0 0 1 3.88 3.633l2.45-3.027a67 67 0 0 0-3.798-3.55" />
</svg>